<?xml version="1.0" standalone="no"?>
<!DOCTYPE svg PUBLIC "-//W3C//DTD SVG 20010904//EN"
 "http://www.w3.org/TR/2001/REC-SVG-20010904/DTD/svg10.dtd">
<svg version="1.0" xmlns="http://www.w3.org/2000/svg"
 width="3840.000000pt" height="2160.000000pt" viewBox="0 0 3840.000000 2160.000000"
 preserveAspectRatio="xMidYMid meet">

<g transform="translate(0.000000,2160.000000) scale(0.100000,-0.100000)"
fill="#000000" stroke="none">
<path d="M17816 20705 c-771 -94 -1532 -458 -2102 -1008 -339 -326 -646 -748
-859 -1182 -179 -363 -285 -693 -346 -1071 -27 -167 -37 -521 -20 -690 43
-422 163 -831 367 -1254 353 -730 872 -1267 1589 -1641 515 -269 1102 -420
1640 -423 204 -1 287 9 545 65 229 50 722 188 742 207 7 7 -40 2363 -48 2390
-2 8 -29 -9 -71 -45 -255 -216 -626 -370 -1006 -419 -158 -20 -421 -15 -562
11 -398 73 -701 291 -870 625 -114 228 -164 459 -165 762 0 189 10 280 47 423
160 619 641 965 1340 965 268 0 462 -49 728 -182 166 -83 409 -252 499 -347
17 -17 33 -31 38 -31 4 0 8 548 8 1219 l0 1218 -57 35 c-321 197 -657 328
-961 373 -117 18 -327 18 -476 0z"/>
<path d="M10635 20673 c-1061 -53 -2014 -580 -2643 -1460 -348 -487 -565
-1047 -649 -1673 -26 -193 -26 -717 0 -910 112 -837 462 -1557 1036 -2130 781
-780 1839 -1132 2911 -970 1001 152 1895 760 2435 1656 270 448 437 945 501
1489 24 207 25 614 0 815 -106 881 -469 1626 -1082 2220 -549 532 -1236 859
-1984 944 -133 15 -409 25 -525 19z m395 -2188 c296 -58 546 -191 760 -405
173 -172 283 -346 355 -563 60 -180 70 -250 70 -467 -1 -175 -4 -207 -27 -306
-102 -433 -376 -783 -765 -979 -220 -110 -414 -156 -664 -156 -249 -1 -456 49
-678 162 -393 200 -665 559 -763 1006 -29 133 -31 405 -5 538 37 180 93 330
182 480 227 383 622 642 1075 705 95 13 361 4 460 -15z"/>
<path d="M27665 20673 c-1008 -51 -1919 -530 -2550 -1338 -99 -126 -225 -318
-304 -460 l-61 -110 0 908 0 907 -2137 0 -2138 -1 -502 -1037 -502 -1037 790
-3 789 -2 0 -2410 0 -2410 1060 0 1060 0 0 2410 0 2410 729 0 729 0 -34 -87
c-105 -267 -184 -593 -226 -933 -20 -160 -17 -671 5 -835 113 -850 461 -1569
1037 -2145 772 -772 1829 -1128 2890 -974 955 139 1817 692 2367 1519 106 160
149 234 242 423 180 368 295 761 348 1192 24 202 24 647 0 850 -83 679 -337
1305 -742 1825 -580 745 -1407 1214 -2327 1319 -132 15 -407 25 -523 19z m413
-2192 c304 -65 530 -188 748 -405 213 -214 338 -444 401 -736 26 -122 26 -450
-1 -569 -132 -603 -601 -1049 -1206 -1147 -110 -18 -331 -20 -439 -4 -224 32
-424 110 -622 241 -125 83 -305 263 -388 388 -299 450 -329 1007 -81 1480 70
132 150 240 261 350 229 230 523 376 844 420 110 15 375 6 483 -18z"/>
<path d="M31590 17165 c0 -3312 1 -3485 18 -3486 9 0 504 -1 1100 -2 l1082 -2
0 1375 c0 755 4 1370 8 1365 5 -6 114 -224 242 -485 128 -261 361 -734 516
-1050 156 -316 359 -729 451 -917 l168 -342 1233 0 c677 -1 1232 2 1232 5 0 6
-566 1130 -1049 2084 l-199 394 212 211 c374 371 523 562 641 822 105 233 167
449 201 703 20 151 23 514 5 640 -66 458 -243 854 -555 1242 -170 211 -437
470 -595 577 -221 150 -553 274 -884 331 -116 20 -159 20 -1973 20 l-1854 0 0
-3485z m2506 1505 c283 -23 510 -77 620 -148 180 -118 337 -381 388 -652 20
-106 21 -268 1 -345 -43 -168 -178 -368 -335 -500 -59 -50 -156 -103 -258
-142 -139 -52 -449 -121 -669 -148 l-53 -7 0 976 0 976 89 0 c48 0 146 -5 217
-10z"/>
<path d="M400 19580 l0 -1050 1558 0 c1354 0 1573 -2 1677 -15 609 -79 1053
-345 1264 -755 108 -209 150 -389 158 -667 27 -911 -393 -1453 -1222 -1578
-116 -18 -442 -25 -502 -11 l-33 8 -2 1479 -3 1479 -120 -68 c-66 -38 -442
-250 -835 -472 -393 -222 -817 -461 -942 -532 l-228 -129 0 -1835 0 -1834
1583 2 1582 3 142 38 c796 212 1437 608 1888 1167 229 284 431 683 534 1056
192 696 167 1557 -65 2262 -158 481 -426 924 -783 1294 -522 542 -1277 965
-2079 1167 l-164 41 -1704 0 -1704 0 0 -1050z"/>
<path d="M7728 13204 c-3 -5 -497 -1213 -1098 -2684 -601 -1471 -1096 -2678
-1099 -2682 -3 -4 -227 1063 -497 2370 l-491 2377 -1856 3 c-1022 1 -1857 0
-1857 -3 0 -5 2327 -11284 2350 -11390 l11 -50 1465 1 c805 1 1466 3 1468 5 2
2 362 1174 801 2604 439 1430 800 2605 804 2612 3 6 323 -1148 710 -2565 388
-1418 709 -2589 714 -2604 l9 -28 1399 0 c1111 0 1401 3 1404 12 9 24 2615
11488 2615 11503 0 13 -209 15 -1855 15 -1020 0 -1855 -4 -1855 -8 0 -4 -41
-239 -90 -522 -304 -1727 -522 -2972 -635 -3615 -114 -650 -126 -720 -129
-723 -2 -1 -513 1203 -1136 2675 -623 1473 -1136 2684 -1140 2692 -4 7 -10 10
-12 5z"/>
<path d="M31495 12829 c-1932 -95 -3706 -1028 -4830 -2539 -437 -587 -768
-1285 -948 -1995 -122 -478 -171 -877 -171 -1385 0 -502 47 -887 166 -1365
378 -1522 1390 -2844 2823 -3685 180 -105 576 -301 775 -383 1869 -769 4023
-639 5763 350 806 457 1509 1095 2023 1836 518 745 851 1590 973 2469 19 136
21 197 21 780 0 624 0 636 -25 806 -182 1249 -774 2397 -1706 3307 -1273 1243
-3031 1895 -4864 1804z m624 -3584 c692 -77 1341 -411 1769 -910 289 -338 473
-736 539 -1165 23 -155 23 -452 -1 -610 -138 -921 -830 -1677 -1804 -1970
-257 -77 -467 -110 -753 -117 -232 -6 -393 4 -584 38 -750 131 -1390 535
-1787 1129 -145 218 -279 536 -327 780 -34 174 -43 267 -43 445 0 253 31 450
108 685 109 331 306 651 563 909 589 594 1442 883 2320 786z"/>
<path d="M14732 6883 l3 -5688 1798 -3 1797 -2 0 1696 0 1697 88 171 c153 297
315 551 499 782 104 130 365 394 483 488 218 174 529 351 777 444 405 151 910
232 1440 232 l163 0 0 -2755 0 -2755 1800 0 1800 0 0 5690 0 5690 -1800 0
-1800 0 0 -1200 0 -1200 -22 0 c-43 0 -383 -61 -567 -101 -654 -144 -1289
-377 -1986 -729 -215 -109 -601 -319 -778 -424 -43 -25 -82 -46 -87 -46 -7 0
-10 660 -10 1850 l0 1850 -1800 0 -1800 0 2 -5687z"/>
</g>
</svg>
